<svg xmlns="http://www.w3.org/2000/svg" viewBox="0 0 200 120" class="w-full h-auto block" aria-hidden="true">
  <rect x="0" y="0" width="200" height="14" fill="currentColor" opacity="0.1"/>
  <rect x="14" y="5" width="20" height="4" rx="1" fill="currentColor" opacity="0.3"/>
  <rect x="140" y="6" width="14" height="3" rx="1" fill="currentColor" opacity="0.2"/>
  <rect x="158" y="6" width="14" height="3" rx="1" fill="currentColor" opacity="0.2"/>
  <rect x="176" y="6" width="10" height="3" rx="1" fill="currentColor" opacity="0.2"/>
  <rect x="0" y="14" width="200" height="44" fill="currentColor" opacity="0.3"/>
  <rect x="14" y="24" width="70" height="6" rx="1" fill="currentColor" opacity="0.5"/>
  <rect x="14" y="34" width="50" height="3" rx="1" fill="currentColor" opacity="0.4"/>
  <rect x="14" y="42" width="86" height="9" rx="2" fill="#ffffff" opacity="0.6"/>
  <rect x="103" y="42" width="9" height="9" rx="2" fill="currentColor" opacity="0.5"/>
  <rect x="14" y="65" width="82" height="14" rx="2" fill="currentColor" opacity="0.12"/>
  <rect x="104" y="65" width="82" height="14" rx="2" fill="currentColor" opacity="0.12"/>
  <rect x="14" y="85" width="54" height="27" rx="3" fill="currentColor" opacity="0.12"/>
  <rect x="73" y="85" width="54" height="27" rx="3" fill="currentColor" opacity="0.12"/>
  <rect x="132" y="85" width="54" height="27" rx="3" fill="currentColor" opacity="0.12"/>
</svg>
